# xmcd
#
# Track frame offsets:
#	150
#	14748
#	27197
#	48510
#	63020
#
# Disc length: 1022 seconds
#
# Revision: 1
# Processed by: cddbd v1.4PL0 Copyright (c) Steve Scherf et al.
# Submitted via: audiograbber 1.80.04
#
DISCID=3903fc05
DTITLE=Андрей Козловский - Бард, который поёт блюз
DYEAR=2002
DGENRE=Blues
TTITLE0=Не горюй
TTITLE1=Полный вперёд
TTITLE2=Она была дольше со мной (чем со всеми)
TTITLE3=Нам хватит
TTITLE4=Блюз о речке Золотухе
EXTD=Rare disc of Russian blues by Andrey Kozlovsky and Vladimir Khozhekin.
EXTT0=
EXTT1=
EXTT2=
EXTT3=
EXTT4=
PLAYORDER=
